<?xml version="1.0" standalone="no"?>
<!DOCTYPE svg PUBLIC "-//W3C//DTD SVG 20010904//EN"
 "http://www.w3.org/TR/2001/REC-SVG-20010904/DTD/svg10.dtd">
<svg version="1.0" xmlns="http://www.w3.org/2000/svg"
 width="1135.000000pt" height="1135.000000pt" viewBox="0 0 1135.000000 1135.000000"
 preserveAspectRatio="xMidYMid meet">
<metadata>
Created by potrace 1.16, written by Peter Selinger 2001-2019
</metadata>
<g transform="translate(0.000000,1135.000000) scale(0.100000,-0.100000)"
fill="#000000" stroke="none">
<path d="M0 5675 l0 -5675 5675 0 5675 0 0 5675 0 5675 -5675 0 -5675 0 0
-5675z m6190 5150 c675 -74 1248 -241 1830 -535 500 -253 918 -556 1321 -959
317 -317 556 -624 789 -1011 98 -162 278 -525 351 -705 683 -1699 431 -3606
-671 -5070 -277 -368 -639 -729 -1011 -1010 -693 -523 -1521 -868 -2369 -989
-247 -35 -372 -46 -635 -53 -1105 -29 -2209 311 -3125 962 -413 294 -817 687
-1120 1090 -817 1086 -1178 2435 -1009 3770 114 902 454 1740 1001 2470 279
371 645 739 1013 1015 813 611 1758 965 2780 1040 175 13 683 4 855 -15z"/>
<path d="M5555 10453 c-718 -25 -1384 -192 -2003 -502 -1040 -521 -1867 -1423
-2293 -2498 -165 -418 -270 -854 -315 -1308 -20 -207 -23 -642 -5 -835 45
-496 146 -924 318 -1360 340 -860 933 -1612 1692 -2143 680 -477 1431 -755
2276 -843 224 -23 703 -24 920 0 600 64 1108 209 1630 466 494 243 872 515
1275 920 312 311 542 611 760 990 780 1356 834 3044 141 4446 -113 230 -177
340 -316 549 -260 388 -558 722 -905 1011 -755 630 -1676 1009 -2640 1088
-191 16 -409 24 -535 19z m340 -179 c655 -124 1254 -848 1643 -1984 86 -253
85 -234 15 -260 -295 -112 -667 -211 -1018 -269 -233 -39 -572 -71 -747 -71
l-88 0 0 1305 0 1305 58 -6 c31 -3 93 -12 137 -20z m-355 -1286 l0 -1301 -162
6 c-502 20 -1004 110 -1470 263 -119 39 -168 60 -168 70 0 24 132 417 185 549
322 807 753 1360 1246 1600 105 51 277 105 362 114 4 1 7 -585 7 -1301z m-661
1201 c-108 -75 -152 -111 -273 -228 -247 -241 -451 -531 -646 -921 -128 -256
-262 -595 -347 -877 l-28 -92 -135 57 c-147 63 -418 201 -545 277 -141 84
-356 232 -477 326 -99 76 -116 94 -108 109 12 23 242 243 360 345 537 462
1180 798 1860 970 147 38 359 83 394 84 11 1 -12 -21 -55 -50z m1706 21 c866
-175 1645 -585 2295 -1207 l124 -119 -96 -80 c-289 -239 -630 -453 -988 -619
l-155 -72 -66 196 c-243 723 -560 1277 -945 1652 -121 117 -165 153 -273 228
-41 28 -68 51 -60 51 8 0 82 -14 164 -30z m2617 -1552 c124 -148 208 -262 324
-438 453 -688 708 -1471 750 -2302 l7 -138 -1095 0 -1095 0 -6 238 c-17 588
-98 1197 -233 1751 -25 101 -41 187 -37 191 4 4 42 22 83 40 371 160 770 406
1105 678 55 45 102 82 105 82 3 0 44 -46 92 -102z m-6720 -166 c288 -206 679
-422 996 -549 34 -14 62 -26 62 -28 0 -1 -18 -76 -39 -166 -138 -574 -231
-1307 -231 -1836 l0 -133 -1096 0 -1097 0 7 138 c50 991 410 1929 1033 2689
l84 103 84 -68 c46 -38 135 -105 197 -150z m5222 -779 c134 -555 226 -1284
226 -1798 l0 -135 -1115 0 -1115 0 0 875 0 875 83 0 c400 1 991 92 1440 224
112 33 410 133 434 145 1 1 22 -83 47 -186z m-3829 86 c255 -83 574 -159 855
-203 221 -35 566 -66 733 -66 l77 0 0 -875 0 -875 -1057 0 -1056 0 6 238 c16
570 89 1136 219 1675 34 144 42 167 57 161 9 -4 84 -29 166 -55z m-602 -2416
c14 -521 86 -1107 193 -1583 20 -91 37 -173 38 -184 1 -14 -23 -29 -104 -64
-412 -180 -845 -451 -1185 -740 l-69 -60 -89 112 c-503 635 -837 1434 -941
2251 -17 133 -36 371 -36 453 l0 52 1093 0 1094 0 6 -237z m2267 -562 l0 -798
-46 -7 c-26 -3 -74 -6 -108 -6 -34 0 -140 -7 -236 -16 -446 -39 -861 -124
-1279 -263 -113 -38 -208 -67 -210 -65 -6 5 -60 254 -90 419 -81 433 -126 863
-138 1293 l-6 242 1056 0 1057 0 0 -799z m2387 557 c-13 -471 -71 -976 -166
-1438 -54 -261 -62 -292 -78 -286 -289 111 -696 222 -1033 281 -249 43 -679
84 -902 85 l-48 0 0 800 0 800 1117 0 1116 0 -6 -242z m2349 100 c-21 -424
-98 -831 -231 -1233 -180 -541 -423 -980 -816 -1475 l-27 -33 -88 75 c-344
292 -775 563 -1162 729 -120 51 -112 17 -58 259 112 498 196 1214 196 1688 l0
132 1096 0 1097 0 -7 -142z m-4736 -2994 l0 -1376 -42 7 c-406 68 -802 369
-1137 865 -247 364 -464 848 -620 1380 -34 115 -37 137 -25 146 25 20 375 132
559 179 373 96 807 157 1228 174 l37 1 0 -1376z m445 1366 c545 -34 1034 -131
1518 -300 109 -39 147 -56 147 -69 0 -46 -124 -424 -217 -661 -153 -390 -364
-770 -580 -1043 -128 -163 -328 -350 -486 -456 -190 -128 -460 -221 -638 -221
l-29 0 0 1380 0 1380 63 0 c34 0 134 -5 222 -10z m-2379 -591 c282 -939 728
-1666 1246 -2032 49 -34 84 -63 78 -65 -17 -6 -307 55 -461 98 -796 218 -1499
634 -2087 1234 l-134 136 64 56 c143 126 411 319 613 441 189 114 595 317 619
310 5 -2 33 -82 62 -178z m4409 77 c288 -139 546 -296 786 -477 129 -97 282
-225 288 -241 1 -5 -57 -70 -130 -145 -666 -674 -1506 -1123 -2424 -1296 -109
-21 -126 -22 -105 -8 560 368 1033 1114 1324 2088 46 157 53 172 71 167 11 -3
97 -43 190 -88z"/>
</g>
</svg>
